<svg width="760" height="280" viewBox="0 0 760 280" fill="none" xmlns="http://www.w3.org/2000/svg">
  <rect width="760" height="280" fill="white"/>
  <g transform="translate(20 18)">
    <ellipse cx="116" cy="138" rx="92" ry="30" fill="#18314A"/>
    <ellipse cx="136" cy="145" rx="102" ry="35" stroke="#4B88C6" stroke-width="10" fill="none"/>
    <rect x="78" y="72" width="76" height="98" rx="10" fill="#234D73"/>
    <rect x="90" y="78" width="12" height="88" fill="#4F86BA" opacity="0.45"/>
    <rect x="103" y="22" width="18" height="92" rx="6" fill="#234D73"/>
    <rect x="107" y="12" width="10" height="16" rx="4" fill="#234D73"/>
    <rect x="125" y="36" width="16" height="84" rx="6" fill="#F0A75B"/>
    <rect x="125" y="44" width="16" height="76" fill="#4F86BA"/>
    <polygon points="133,28 141,44 125,44" fill="#18314A"/>
    <rect x="146" y="28" width="20" height="110" rx="4" fill="#4F86BA"/>
    <g transform="translate(150 38) rotate(5)">
      <rect x="0" y="0" width="64" height="94" rx="6" fill="white" stroke="#D9E3EE" stroke-width="4"/>
      <rect x="16" y="20" width="30" height="6" rx="3" fill="#4F86BA"/>
      <rect x="16" y="34" width="30" height="6" rx="3" fill="#4F86BA"/>
      <rect x="16" y="48" width="30" height="6" rx="3" fill="#4F86BA"/>
      <rect x="46" y="70" width="8" height="24" fill="#18314A"/>
    </g>
    <polygon points="214,52 242,60 214,154 187,146" fill="#4F86BA"/>
    <polygon points="225,38 242,60 214,52" fill="#6AA5DA"/>
  </g>
  <g fill="#1E2430">
    <text x="255" y="168" font-family="Segoe UI, Arial, sans-serif" font-size="88" font-weight="800" letter-spacing="4">EMFULENI</text>
    <text x="258" y="216" font-family="Segoe UI, Arial, sans-serif" font-size="42" font-weight="700" letter-spacing="11">BUSINESS LINES</text>
  </g>
</svg>
